<svg width="24" height="24" viewBox="0 0 24 24" fill="none" xmlns="http://www.w3.org/2000/svg">
<g clip-path="url(#clip0_2205_707)">
<path fill-rule="evenodd" clip-rule="evenodd" d="M0.428711 12.0001C0.428711 10.4806 0.728015 8.97586 1.30953 7.57195C1.89105 6.16804 2.7434 4.89241 3.8179 3.8179C4.89241 2.7434 6.16804 1.89105 7.57195 1.30953C8.97586 0.728015 10.4806 0.428711 12.0001 0.428711C13.5197 0.428711 15.0244 0.728015 16.4283 1.30953C17.8322 1.89105 19.1079 2.7434 20.1824 3.8179C21.2569 4.89241 22.1092 6.16804 22.6907 7.57195C23.2723 8.97586 23.5716 10.4806 23.5716 12.0001C23.5716 15.0691 22.3524 18.0123 20.1824 20.1824C18.0123 22.3524 15.0691 23.5716 12.0001 23.5716C8.93121 23.5716 5.98797 22.3524 3.8179 20.1824C1.64784 18.0123 0.428711 15.0691 0.428711 12.0001ZM15.8607 18.967L17.6521 5.36928L3.655 12.115L7.79842 13.6167L12.403 10.0579C12.4921 9.98908 12.594 9.93854 12.7027 9.90911C12.8113 9.87969 12.9247 9.87196 13.0364 9.88636C13.1481 9.90077 13.2558 9.93703 13.3535 9.99307C13.4511 10.0491 13.5368 10.1238 13.6056 10.213C13.6743 10.3021 13.7249 10.404 13.7543 10.5126C13.7837 10.6213 13.7915 10.7347 13.7771 10.8464C13.7627 10.9581 13.7264 11.0658 13.6703 11.1635C13.6143 11.2611 13.5396 11.3468 13.4504 11.4156L9.631 14.3659V19.039L12.5196 16.2893L15.8607 18.967Z" fill="#FFA9B1"/>
</g>
<defs>
<clipPath id="clip0_2205_707">
<rect width="24" height="24" fill="white"/>
</clipPath>
</defs>
</svg>
